<svg version="1.1" baseProfile="full" width="1930" height="1242" viewBox="0 0 7720 4968" xmlns="http://www.w3.org/2000/svg" xmlns:xlink="http://www.w3.org/1999/xlink" xmlns:ev="http://www.w3.org/2001/xml-events" >
 <g fill="White"><rect x="0" y="0" width="7720" height="4968" /></g>
 <g font-family="DejaVu Sans">
  <defs>
   <clipPath id="cut0">
    <rect x="660" y="680" width="2960" height="1648" />
   </clipPath>
  </defs>
  <path fill="none" stroke-width="1.8" stroke="Silver" d="M660 2328L3620 2328M660 2080L3620 2080M660 1935L3620 1935M660 1832L3620 1832M660 1752L3620 1752M660 1504L3620 1504M660 1256L3620 1256M660 1111L3620 1111M660 1008L3620 1008M660 928L3620 928M660 680L3620 680"/>
  <path fill="none" stroke-width="1.8" stroke="Silver" d="M660 680L660 2328M1252 680L1252 2328M1844 680L1844 2328M2436 680L2436 2328M3028 680L3028 2328M3620 680L3620 2328"/>
  <path fill="none" stroke-width="7" stroke="Black" d="M660 2328L660 2276M1252 2328L1252 2276M1844 2328L1844 2276M2436 2328L2436 2276M3028 2328L3028 2276M3620 2328L3620 2276"/>
  <path fill="none" stroke-width="3" stroke="Black" d="M838 2328L838 2294M942 2328L942 2294M1016 2328L1016 2294M1074 2328L1074 2294M1121 2328L1121 2294M1160 2328L1160 2294M1195 2328L1195 2294M1225 2328L1225 2294M1430 2328L1430 2294M1534 2328L1534 2294M1608 2328L1608 2294M1666 2328L1666 2294M1713 2328L1713 2294M1752 2328L1752 2294M1787 2328L1787 2294M1817 2328L1817 2294M2022 2328L2022 2294M2126 2328L2126 2294M2200 2328L2200 2294M2258 2328L2258 2294M2305 2328L2305 2294M2344 2328L2344 2294M2379 2328L2379 2294M2409 2328L2409 2294M2614 2328L2614 2294M2718 2328L2718 2294M2792 2328L2792 2294M2850 2328L2850 2294M2897 2328L2897 2294M2936 2328L2936 2294M2971 2328L2971 2294M3001 2328L3001 2294M3206 2328L3206 2294M3310 2328L3310 2294M3384 2328L3384 2294M3442 2328L3442 2294M3489 2328L3489 2294M3528 2328L3528 2294M3563 2328L3563 2294M3593 2328L3593 2294"/>
  <path fill="none" stroke-width="7" stroke="Black" d="M3620 2328L3620 2380M3028 2328L3028 2380M2436 2328L2436 2380M1844 2328L1844 2380M1252 2328L1252 2380M660 2328L660 2380"/>
  <path fill="none" stroke-width="3" stroke="Black" d="M3442 2328L3442 2362M3338 2328L3338 2362M3264 2328L3264 2362M3206 2328L3206 2362M3159 2328L3159 2362M3120 2328L3120 2362M3085 2328L3085 2362M3055 2328L3055 2362M2850 2328L2850 2362M2746 2328L2746 2362M2672 2328L2672 2362M2614 2328L2614 2362M2567 2328L2567 2362M2528 2328L2528 2362M2493 2328L2493 2362M2463 2328L2463 2362M2258 2328L2258 2362M2154 2328L2154 2362M2080 2328L2080 2362M2022 2328L2022 2362M1975 2328L1975 2362M1936 2328L1936 2362M1901 2328L1901 2362M1871 2328L1871 2362M1666 2328L1666 2362M1562 2328L1562 2362M1488 2328L1488 2362M1430 2328L1430 2362M1383 2328L1383 2362M1344 2328L1344 2362M1309 2328L1309 2362M1279 2328L1279 2362M1074 2328L1074 2362M970 2328L970 2362M896 2328L896 2362M838 2328L838 2362M791 2328L791 2362M752 2328L752 2362M717 2328L717 2362M687 2328L687 2362"/>
  <path fill="none" stroke-width="7" stroke="Black" d="M608 1752L660 1752M608 928L660 928"/>
  <path fill="none" stroke-width="3" stroke="Black" d="M624 2328L660 2328M624 2183L660 2183M624 2080L660 2080M624 2000L660 2000M624 1935L660 1935M624 1880L660 1880M624 1832L660 1832M624 1790L660 1790M624 1504L660 1504M624 1359L660 1359M624 1256L660 1256M624 1176L660 1176M624 1111L660 1111M624 1056L660 1056M624 1008L660 1008M624 966L660 966M624 680L660 680"/>
  <g clip-path="url(#cut0)">
   <g stroke-width="23" stroke="#7ccf81" stroke-linejoin="round" stroke-linecap="round" fill="none">
    <path d="M660 1947L838 1947L942 1941L1016 1941L1121 1941L1252 1941L1356 1923L1466 1929L1574 1923L1686 1912L1799 1901L1913 1895L2027 1875L2253 1794L2367 1814L2481 1752L2594 1650L2706 1619L2814 1436L2924 1151L3028 1117L3159 1034L3264 940L3338 943L3442 857L3620 676" />
   </g>
   <g stroke-width="23" stroke="#6ca67d" stroke-linejoin="round" stroke-linecap="round" fill="none">
    <path d="M660 2118L838 2118L942 2118L1016 2118L1121 2108L1252 2108L1356 2108L1466 2089L1574 2108L1686 2062L1799 2062L1913 2000L2027 2046L2253 1941L2367 2000L2481 1460L2594 1420L2706 1705L2814 1181L2924 1150L3028 1127L3159 1061L3264 1013L3338 942L3442 879L3620 693" />
   </g>
   <g stroke-width="23" stroke="#db6239" stroke-linejoin="round" stroke-linecap="round" fill="none">
    <path d="M660 1309L838 1582L942 1588L1016 1593L1121 1584L1252 1617L1356 1614L1466 1624L1574 1605L1686 1629L1799 1639L1913 1661L2027 1629L2253 1617L2367 1548L2481 1526L2594 1451L2706 1360L2814 1260L2924 1364L3028 1340L3159 1340L3264 1346L3338 1271L3442 1308L3620 1403" />
   </g>
   <g stroke-width="23" stroke="#c23f25" stroke-linejoin="round" stroke-linecap="round" fill="none">
    <path d="M660 1554L838 1748L942 1774L1016 1738L1121 1745L1252 1745L1356 1752L1466 1752L1574 1738L1686 1745L1799 1756L1913 1759L2027 1718L2253 1702L2367 1619L2481 1582L2594 1504L2706 1399L2814 1294L2924 1544L3028 1493L3159 1506L3264 1519L3338 1526L3442 1493L3620 1566" />
   </g>
  </g>
  <path fill="none" stroke-width="12" stroke="Black" d="M660 2380L660 636M616 2328L3664 2328"/>
  <g font-size="80" text-anchor="end">
   <text x="595" y="2354">20</text>
   <text x="595" y="2106">40</text>
   <text x="595" y="1961">60</text>
   <text x="595" y="1858">80</text>
   <text x="595" y="1778">100</text>
   <text x="595" y="1530">200</text>
   <text x="595" y="1282">400</text>
   <text x="595" y="1137">600</text>
   <text x="595" y="1034">800</text>
   <text x="595" y="954">1e3</text>
   <text x="595" y="706">2e3</text>
  </g>
  <g font-size="80" text-anchor="middle">
   <text x="690" y="2268">1</text>
   <text x="1252" y="2258">10</text>
   <text x="1844" y="2258">100</text>
   <text x="2436" y="2258">1e3</text>
   <text x="3028" y="2258">1e4</text>
   <text x="3592" y="2258">1e5</text>
   <text x="3620" y="2458">1</text>
   <text x="3028" y="2458">10</text>
   <text x="2436" y="2458">100</text>
   <text x="1844" y="2458">1e3</text>
   <text x="1252" y="2458">1e4</text>
   <text x="688" y="2458">1e5</text>
   <text x="926.4" y="2244" style="font-size: 100px;" fill="#444">Left</text>
   <text x="3353.6" y="2480" style="font-size: 100px;" fill="#444">Right</text>
  </g>
  <g stroke-width="19" stroke-linecap="round" fill="#12061a" transform="translate(660 664)">
   <rect fill="White" stroke="#0b0615" stroke-width="4" x="50" y="-6" width="720" height="420" />
   <path stroke="#7ccf81" d="M100 46L220 46"/>
   <path stroke="#6ca67d" d="M100 146L220 146"/>
   <path stroke="#db6239" d="M100 246L220 246"/>
   <path stroke="#c23f25" d="M100 346L220 346"/>
   <text x="250" y="76" style="font-size: 80px;">gcc</text>
   <text x="250" y="176" style="font-size: 80px;">gcc (native)</text>
   <text x="250" y="276" style="font-size: 80px;">Dyalog 17.1</text>
   <text x="250" y="376" style="font-size: 80px;">Dyalog 18.0</text>
  </g>
 </g>
 <text x="3620" y="620" style="font-size:120px; text-anchor:end;" fill="#444">1-byte integers</text>
 <g font-family="DejaVu Sans">
  <defs>
   <clipPath id="cut1">
    <rect x="4580" y="680" width="2960" height="1648" />
   </clipPath>
  </defs>
  <path fill="none" stroke-width="1.8" stroke="Silver" d="M4580 2328L7540 2328M4580 2080L7540 2080M4580 1935L7540 1935M4580 1832L7540 1832M4580 1752L7540 1752M4580 1504L7540 1504M4580 1256L7540 1256M4580 1111L7540 1111M4580 1008L7540 1008M4580 928L7540 928M4580 680L7540 680"/>
  <path fill="none" stroke-width="1.8" stroke="Silver" d="M4580 680L4580 2328M5172 680L5172 2328M5764 680L5764 2328M6356 680L6356 2328M6948 680L6948 2328M7540 680L7540 2328"/>
  <path fill="none" stroke-width="7" stroke="Black" d="M4580 2328L4580 2276M5172 2328L5172 2276M5764 2328L5764 2276M6356 2328L6356 2276M6948 2328L6948 2276M7540 2328L7540 2276"/>
  <path fill="none" stroke-width="3" stroke="Black" d="M4758 2328L4758 2294M4862 2328L4862 2294M4936 2328L4936 2294M4994 2328L4994 2294M5041 2328L5041 2294M5080 2328L5080 2294M5115 2328L5115 2294M5145 2328L5145 2294M5350 2328L5350 2294M5454 2328L5454 2294M5528 2328L5528 2294M5586 2328L5586 2294M5633 2328L5633 2294M5672 2328L5672 2294M5707 2328L5707 2294M5737 2328L5737 2294M5942 2328L5942 2294M6046 2328L6046 2294M6120 2328L6120 2294M6178 2328L6178 2294M6225 2328L6225 2294M6264 2328L6264 2294M6299 2328L6299 2294M6329 2328L6329 2294M6534 2328L6534 2294M6638 2328L6638 2294M6712 2328L6712 2294M6770 2328L6770 2294M6817 2328L6817 2294M6856 2328L6856 2294M6891 2328L6891 2294M6921 2328L6921 2294M7126 2328L7126 2294M7230 2328L7230 2294M7304 2328L7304 2294M7362 2328L7362 2294M7409 2328L7409 2294M7448 2328L7448 2294M7483 2328L7483 2294M7513 2328L7513 2294"/>
  <path fill="none" stroke-width="7" stroke="Black" d="M7540 2328L7540 2380M6948 2328L6948 2380M6356 2328L6356 2380M5764 2328L5764 2380M5172 2328L5172 2380M4580 2328L4580 2380"/>
  <path fill="none" stroke-width="3" stroke="Black" d="M7362 2328L7362 2362M7258 2328L7258 2362M7184 2328L7184 2362M7126 2328L7126 2362M7079 2328L7079 2362M7040 2328L7040 2362M7005 2328L7005 2362M6975 2328L6975 2362M6770 2328L6770 2362M6666 2328L6666 2362M6592 2328L6592 2362M6534 2328L6534 2362M6487 2328L6487 2362M6448 2328L6448 2362M6413 2328L6413 2362M6383 2328L6383 2362M6178 2328L6178 2362M6074 2328L6074 2362M6000 2328L6000 2362M5942 2328L5942 2362M5895 2328L5895 2362M5856 2328L5856 2362M5821 2328L5821 2362M5791 2328L5791 2362M5586 2328L5586 2362M5482 2328L5482 2362M5408 2328L5408 2362M5350 2328L5350 2362M5303 2328L5303 2362M5264 2328L5264 2362M5229 2328L5229 2362M5199 2328L5199 2362M4994 2328L4994 2362M4890 2328L4890 2362M4816 2328L4816 2362M4758 2328L4758 2362M4711 2328L4711 2362M4672 2328L4672 2362M4637 2328L4637 2362M4607 2328L4607 2362"/>
  <path fill="none" stroke-width="7" stroke="Black" d="M4528 1752L4580 1752M4528 928L4580 928"/>
  <path fill="none" stroke-width="3" stroke="Black" d="M4544 2328L4580 2328M4544 2183L4580 2183M4544 2080L4580 2080M4544 2000L4580 2000M4544 1935L4580 1935M4544 1880L4580 1880M4544 1832L4580 1832M4544 1790L4580 1790M4544 1504L4580 1504M4544 1359L4580 1359M4544 1256L4580 1256M4544 1176L4580 1176M4544 1111L4580 1111M4544 1056L4580 1056M4544 1008L4580 1008M4544 966L4580 966M4544 680L4580 680"/>
  <g clip-path="url(#cut1)">
   <g stroke-width="23" stroke="#7ccf81" stroke-linejoin="round" stroke-linecap="round" fill="none">
    <path d="M4580 2007L4758 1993L4862 1941L4936 2007L5041 1912L5172 1986L5276 1819L5386 1895L5494 1819L5606 1929L5719 1890L5833 1912L5947 1865L6173 1846L6287 1814L6401 1782L6514 1681L6626 1658L6734 1472L6844 1348L6948 1353L7079 1018L7184 903L7258 873L7362 838L7540 679" />
   </g>
   <g stroke-width="23" stroke="#6ca67d" stroke-linejoin="round" stroke-linecap="round" fill="none">
    <path d="M4580 2000L4758 2015L4862 2007L4936 2054L5041 2015L5172 2015L5276 2000L5386 2022L5494 2007L5606 2007L5719 1993L5833 1986L5947 1953L6173 1912L6287 1953L6401 1906L6514 1774L6626 1745L6734 1497L6844 1178L6948 1132L7079 1052L7184 991L7258 948L7362 848L7540 678" />
   </g>
   <g stroke-width="23" stroke="#db6239" stroke-linejoin="round" stroke-linecap="round" fill="none">
    <path d="M4580 1011L4758 1304L4862 1293L4936 1299L5041 1312L5172 1317L5276 1293L5386 1303L5494 1323L5606 1320L5719 1307L5833 1323L5947 1336L6173 1293L6287 1288L6401 1245L6514 1215L6626 1157L6734 1063L6844 1111L6948 888L7079 1170L7184 1043L7258 1055L7362 1011L7540 1121" />
   </g>
   <g stroke-width="23" stroke="#c23f25" stroke-linejoin="round" stroke-linecap="round" fill="none">
    <path d="M4580 1217L4758 1371L4862 1349L4936 1364L5041 1346L5172 1344L5276 1345L5386 1336L5494 1369L5606 1343L5719 1337L5833 1349L5947 1332L6173 1318L6287 1297L6401 1283L6514 1244L6626 1168L6734 1091L6844 1163L6948 903L7079 1127L7184 1129L7258 1099L7362 1087L7540 1122" />
   </g>
  </g>
  <path fill="none" stroke-width="12" stroke="Black" d="M4580 2380L4580 636M4536 2328L7584 2328"/>
  <g font-size="80" text-anchor="end">
   <text x="4515" y="2354">20</text>
   <text x="4515" y="2106">40</text>
   <text x="4515" y="1961">60</text>
   <text x="4515" y="1858">80</text>
   <text x="4515" y="1778">100</text>
   <text x="4515" y="1530">200</text>
   <text x="4515" y="1282">400</text>
   <text x="4515" y="1137">600</text>
   <text x="4515" y="1034">800</text>
   <text x="4515" y="954">1e3</text>
   <text x="4515" y="706">2e3</text>
  </g>
  <g font-size="80" text-anchor="middle">
   <text x="4610" y="2268">1</text>
   <text x="5172" y="2258">10</text>
   <text x="5764" y="2258">100</text>
   <text x="6356" y="2258">1e3</text>
   <text x="6948" y="2258">1e4</text>
   <text x="7512" y="2258">1e5</text>
   <text x="7540" y="2458">1</text>
   <text x="6948" y="2458">10</text>
   <text x="6356" y="2458">100</text>
   <text x="5764" y="2458">1e3</text>
   <text x="5172" y="2458">1e4</text>
   <text x="4608" y="2458">1e5</text>
   <text x="4846.4" y="2244" style="font-size: 100px;" fill="#444">Left</text>
   <text x="7273.6" y="2480" style="font-size: 100px;" fill="#444">Right</text>
  </g>
  <g stroke-width="19" stroke-linecap="round" fill="#12061a" transform="translate(4580 664)">
   <rect fill="White" stroke="#0b0615" stroke-width="4" x="50" y="-6" width="720" height="420" />
   <path stroke="#7ccf81" d="M100 46L220 46"/>
   <path stroke="#6ca67d" d="M100 146L220 146"/>
   <path stroke="#db6239" d="M100 246L220 246"/>
   <path stroke="#c23f25" d="M100 346L220 346"/>
   <text x="250" y="76" style="font-size: 80px;">gcc</text>
   <text x="250" y="176" style="font-size: 80px;">gcc (native)</text>
   <text x="250" y="276" style="font-size: 80px;">Dyalog 17.1</text>
   <text x="250" y="376" style="font-size: 80px;">Dyalog 18.0</text>
  </g>
 </g>
 <text x="7540" y="620" style="font-size:120px; text-anchor:end;" fill="#444">2-byte integers</text>
 <g font-family="DejaVu Sans">
  <defs>
   <clipPath id="cut2">
    <rect x="660" y="2814" width="2960" height="1648" />
   </clipPath>
  </defs>
  <path fill="none" stroke-width="1.8" stroke="Silver" d="M660 4462L3620 4462M660 4214L3620 4214M660 4069L3620 4069M660 3966L3620 3966M660 3886L3620 3886M660 3638L3620 3638M660 3390L3620 3390M660 3245L3620 3245M660 3142L3620 3142M660 3062L3620 3062M660 2814L3620 2814"/>
  <path fill="none" stroke-width="1.8" stroke="Silver" d="M660 2814L660 4462M1252 2814L1252 4462M1844 2814L1844 4462M2436 2814L2436 4462M3028 2814L3028 4462M3620 2814L3620 4462"/>
  <path fill="none" stroke-width="7" stroke="Black" d="M660 4462L660 4410M1252 4462L1252 4410M1844 4462L1844 4410M2436 4462L2436 4410M3028 4462L3028 4410M3620 4462L3620 4410"/>
  <path fill="none" stroke-width="3" stroke="Black" d="M838 4462L838 4428M942 4462L942 4428M1016 4462L1016 4428M1074 4462L1074 4428M1121 4462L1121 4428M1160 4462L1160 4428M1195 4462L1195 4428M1225 4462L1225 4428M1430 4462L1430 4428M1534 4462L1534 4428M1608 4462L1608 4428M1666 4462L1666 4428M1713 4462L1713 4428M1752 4462L1752 4428M1787 4462L1787 4428M1817 4462L1817 4428M2022 4462L2022 4428M2126 4462L2126 4428M2200 4462L2200 4428M2258 4462L2258 4428M2305 4462L2305 4428M2344 4462L2344 4428M2379 4462L2379 4428M2409 4462L2409 4428M2614 4462L2614 4428M2718 4462L2718 4428M2792 4462L2792 4428M2850 4462L2850 4428M2897 4462L2897 4428M2936 4462L2936 4428M2971 4462L2971 4428M3001 4462L3001 4428M3206 4462L3206 4428M3310 4462L3310 4428M3384 4462L3384 4428M3442 4462L3442 4428M3489 4462L3489 4428M3528 4462L3528 4428M3563 4462L3563 4428M3593 4462L3593 4428"/>
  <path fill="none" stroke-width="7" stroke="Black" d="M3620 4462L3620 4514M3028 4462L3028 4514M2436 4462L2436 4514M1844 4462L1844 4514M1252 4462L1252 4514M660 4462L660 4514"/>
  <path fill="none" stroke-width="3" stroke="Black" d="M3442 4462L3442 4496M3338 4462L3338 4496M3264 4462L3264 4496M3206 4462L3206 4496M3159 4462L3159 4496M3120 4462L3120 4496M3085 4462L3085 4496M3055 4462L3055 4496M2850 4462L2850 4496M2746 4462L2746 4496M2672 4462L2672 4496M2614 4462L2614 4496M2567 4462L2567 4496M2528 4462L2528 4496M2493 4462L2493 4496M2463 4462L2463 4496M2258 4462L2258 4496M2154 4462L2154 4496M2080 4462L2080 4496M2022 4462L2022 4496M1975 4462L1975 4496M1936 4462L1936 4496M1901 4462L1901 4496M1871 4462L1871 4496M1666 4462L1666 4496M1562 4462L1562 4496M1488 4462L1488 4496M1430 4462L1430 4496M1383 4462L1383 4496M1344 4462L1344 4496M1309 4462L1309 4496M1279 4462L1279 4496M1074 4462L1074 4496M970 4462L970 4496M896 4462L896 4496M838 4462L838 4496M791 4462L791 4496M752 4462L752 4496M717 4462L717 4496M687 4462L687 4496"/>
  <path fill="none" stroke-width="7" stroke="Black" d="M608 3886L660 3886M608 3062L660 3062"/>
  <path fill="none" stroke-width="3" stroke="Black" d="M624 4462L660 4462M624 4317L660 4317M624 4214L660 4214M624 4134L660 4134M624 4069L660 4069M624 4014L660 4014M624 3966L660 3966M624 3924L660 3924M624 3638L660 3638M624 3493L660 3493M624 3390L660 3390M624 3310L660 3310M624 3245L660 3245M624 3190L660 3190M624 3142L660 3142M624 3100L660 3100M624 2814L660 2814"/>
  <g clip-path="url(#cut2)">
   <g stroke-width="23" stroke="#7ccf81" stroke-linejoin="round" stroke-linecap="round" fill="none">
    <path d="M660 3612L838 3612L942 3612L1016 3576L1121 3612L1252 3612L1356 3602L1466 3609L1574 3609L1686 3607L1799 3606L1913 3602L2027 3596L2253 3596L2367 3594L2481 3580L2594 3570L2706 3540L2814 3496L2924 3444L3028 3379L3159 3275L3264 3182L3338 3087L3442 3013L3620 2813" />
   </g>
   <g stroke-width="23" stroke="#6ca67d" stroke-linejoin="round" stroke-linecap="round" fill="none">
    <path d="M660 3855L838 3833L942 3827L1016 3849L1121 3855L1252 3845L1356 3771L1466 3845L1574 3865L1686 3875L1799 3849L1913 3869L2027 3815L2253 3855L2367 3833L2481 3842L2594 3784L2706 3771L2814 3602L2924 3488L3028 3503L3159 3135L3264 3087L3338 3035L3442 2921L3620 2812" />
   </g>
   <g stroke-width="23" stroke="#db6239" stroke-linejoin="round" stroke-linecap="round" fill="none">
    <path d="M660 3109L838 3171L942 3248L1016 3284L1121 3338L1252 3393L1356 3441L1466 3463L1574 3478L1686 3518L1799 3503L1913 3508L2027 3509L2253 3499L2367 3495L2481 3464L2594 3443L2706 3392L2814 3342L2924 3317L3028 3193L3159 3047L3264 3026L3338 3007L3442 2981L3620 3109" />
   </g>
   <g stroke-width="23" stroke="#c23f25" stroke-linejoin="round" stroke-linecap="round" fill="none">
    <path d="M660 3225L838 3267L942 3318L1016 3342L1121 3388L1252 3441L1356 3470L1466 3488L1574 3492L1686 3531L1799 3536L1913 3544L2027 3535L2253 3516L2367 3500L2481 3503L2594 3466L2706 3446L2814 3404L2924 3353L3028 3262L3159 3116L3264 3159L3338 3127L3442 3132L3620 3213" />
   </g>
  </g>
  <path fill="none" stroke-width="12" stroke="Black" d="M660 4514L660 2770M616 4462L3664 4462"/>
  <g font-size="80" text-anchor="end">
   <text x="595" y="4488">20</text>
   <text x="595" y="4240">40</text>
   <text x="595" y="4095">60</text>
   <text x="595" y="3992">80</text>
   <text x="595" y="3912">100</text>
   <text x="595" y="3664">200</text>
   <text x="595" y="3416">400</text>
   <text x="595" y="3271">600</text>
   <text x="595" y="3168">800</text>
   <text x="595" y="3088">1e3</text>
   <text x="595" y="2840">2e3</text>
  </g>
  <g font-size="80" text-anchor="middle">
   <text x="690" y="4402">1</text>
   <text x="1252" y="4392">10</text>
   <text x="1844" y="4392">100</text>
   <text x="2436" y="4392">1e3</text>
   <text x="3028" y="4392">1e4</text>
   <text x="3592" y="4392">1e5</text>
   <text x="3620" y="4592">1</text>
   <text x="3028" y="4592">10</text>
   <text x="2436" y="4592">100</text>
   <text x="1844" y="4592">1e3</text>
   <text x="1252" y="4592">1e4</text>
   <text x="688" y="4592">1e5</text>
   <text x="926.4" y="4378" style="font-size: 100px;" fill="#444">Left</text>
   <text x="3353.6" y="4614" style="font-size: 100px;" fill="#444">Right</text>
  </g>
  <g stroke-width="19" stroke-linecap="round" fill="#12061a" transform="translate(660 2798)">
   <rect fill="White" stroke="#0b0615" stroke-width="4" x="50" y="-6" width="720" height="420" />
   <path stroke="#7ccf81" d="M100 46L220 46"/>
   <path stroke="#6ca67d" d="M100 146L220 146"/>
   <path stroke="#db6239" d="M100 246L220 246"/>
   <path stroke="#c23f25" d="M100 346L220 346"/>
   <text x="250" y="76" style="font-size: 80px;">gcc</text>
   <text x="250" y="176" style="font-size: 80px;">gcc (native)</text>
   <text x="250" y="276" style="font-size: 80px;">Dyalog 17.1</text>
   <text x="250" y="376" style="font-size: 80px;">Dyalog 18.0</text>
  </g>
 </g>
 <text x="3620" y="2754" style="font-size:120px; text-anchor:end;" fill="#444">4-byte integers</text>
 <g font-family="DejaVu Sans">
  <defs>
   <clipPath id="cut3">
    <rect x="4580" y="2814" width="2960" height="1648" />
   </clipPath>
  </defs>
  <path fill="none" stroke-width="1.8" stroke="Silver" d="M4580 4462L7540 4462M4580 4214L7540 4214M4580 4069L7540 4069M4580 3966L7540 3966M4580 3886L7540 3886M4580 3638L7540 3638M4580 3390L7540 3390M4580 3245L7540 3245M4580 3142L7540 3142M4580 3062L7540 3062M4580 2814L7540 2814"/>
  <path fill="none" stroke-width="1.8" stroke="Silver" d="M4580 2814L4580 4462M5172 2814L5172 4462M5764 2814L5764 4462M6356 2814L6356 4462M6948 2814L6948 4462M7540 2814L7540 4462"/>
  <path fill="none" stroke-width="7" stroke="Black" d="M4580 4462L4580 4410M5172 4462L5172 4410M5764 4462L5764 4410M6356 4462L6356 4410M6948 4462L6948 4410M7540 4462L7540 4410"/>
  <path fill="none" stroke-width="3" stroke="Black" d="M4758 4462L4758 4428M4862 4462L4862 4428M4936 4462L4936 4428M4994 4462L4994 4428M5041 4462L5041 4428M5080 4462L5080 4428M5115 4462L5115 4428M5145 4462L5145 4428M5350 4462L5350 4428M5454 4462L5454 4428M5528 4462L5528 4428M5586 4462L5586 4428M5633 4462L5633 4428M5672 4462L5672 4428M5707 4462L5707 4428M5737 4462L5737 4428M5942 4462L5942 4428M6046 4462L6046 4428M6120 4462L6120 4428M6178 4462L6178 4428M6225 4462L6225 4428M6264 4462L6264 4428M6299 4462L6299 4428M6329 4462L6329 4428M6534 4462L6534 4428M6638 4462L6638 4428M6712 4462L6712 4428M6770 4462L6770 4428M6817 4462L6817 4428M6856 4462L6856 4428M6891 4462L6891 4428M6921 4462L6921 4428M7126 4462L7126 4428M7230 4462L7230 4428M7304 4462L7304 4428M7362 4462L7362 4428M7409 4462L7409 4428M7448 4462L7448 4428M7483 4462L7483 4428M7513 4462L7513 4428"/>
  <path fill="none" stroke-width="7" stroke="Black" d="M7540 4462L7540 4514M6948 4462L6948 4514M6356 4462L6356 4514M5764 4462L5764 4514M5172 4462L5172 4514M4580 4462L4580 4514"/>
  <path fill="none" stroke-width="3" stroke="Black" d="M7362 4462L7362 4496M7258 4462L7258 4496M7184 4462L7184 4496M7126 4462L7126 4496M7079 4462L7079 4496M7040 4462L7040 4496M7005 4462L7005 4496M6975 4462L6975 4496M6770 4462L6770 4496M6666 4462L6666 4496M6592 4462L6592 4496M6534 4462L6534 4496M6487 4462L6487 4496M6448 4462L6448 4496M6413 4462L6413 4496M6383 4462L6383 4496M6178 4462L6178 4496M6074 4462L6074 4496M6000 4462L6000 4496M5942 4462L5942 4496M5895 4462L5895 4496M5856 4462L5856 4496M5821 4462L5821 4496M5791 4462L5791 4496M5586 4462L5586 4496M5482 4462L5482 4496M5408 4462L5408 4496M5350 4462L5350 4496M5303 4462L5303 4496M5264 4462L5264 4496M5229 4462L5229 4496M5199 4462L5199 4496M4994 4462L4994 4496M4890 4462L4890 4496M4816 4462L4816 4496M4758 4462L4758 4496M4711 4462L4711 4496M4672 4462L4672 4496M4637 4462L4637 4496M4607 4462L4607 4496"/>
  <path fill="none" stroke-width="7" stroke="Black" d="M4528 3886L4580 3886M4528 3062L4580 3062"/>
  <path fill="none" stroke-width="3" stroke="Black" d="M4544 4462L4580 4462M4544 4317L4580 4317M4544 4214L4580 4214M4544 4134L4580 4134M4544 4069L4580 4069M4544 4014L4580 4014M4544 3966L4580 3966M4544 3924L4580 3924M4544 3638L4580 3638M4544 3493L4580 3493M4544 3390L4580 3390M4544 3310L4580 3310M4544 3245L4580 3245M4544 3190L4580 3190M4544 3142L4580 3142M4544 3100L4580 3100M4544 2814L4580 2814"/>
  <g clip-path="url(#cut3)">
   <g stroke-width="23" stroke="#7ccf81" stroke-linejoin="round" stroke-linecap="round" fill="none">
    <path d="M4580 3614L4758 3634L4862 3622L4936 3636L5041 3561L5172 3629L5276 3550L5386 3629L5494 3629L5606 3627L5719 3557L5833 3624L5947 3552L6173 3599L6287 3558L6401 3624L6514 3602L6626 3552L6734 3519L6844 3481L6948 3416L7079 3291L7184 3215L7258 3139L7362 3005L7540 2809" />
   </g>
   <g stroke-width="23" stroke="#6ca67d" stroke-linejoin="round" stroke-linecap="round" fill="none">
    <path d="M4580 3596L4758 3599L4862 3607L4936 3576L5041 3604L5172 3594L5276 3594L5386 3570L5494 3599L5606 3596L5719 3607L5833 3594L5947 3601L6173 3591L6287 3594L6401 3573L6514 3574L6626 3560L6734 3567L6844 3540L6948 3480L7079 3346L7184 3268L7258 3020L7362 2991L7540 2811" />
   </g>
   <g stroke-width="23" stroke="#db6239" stroke-linejoin="round" stroke-linecap="round" fill="none">
    <path d="M4580 3026L4758 3365L4862 3357L4936 3380L5041 3398L5172 3412L5276 3427L5386 3444L5494 3460L5606 3515L5719 3529L5833 3320L5947 3373L6173 3367L6287 3275L6401 3248L6514 3153L6626 3161L6734 3259L6844 3251L6948 3167L7079 3087L7184 2983L7258 2908L7362 2838L7540 3032" />
   </g>
   <g stroke-width="23" stroke="#c23f25" stroke-linejoin="round" stroke-linecap="round" fill="none">
    <path d="M4580 3193L4758 3440L4862 3437L4936 3435L5041 3456L5172 3496L5276 3496L5386 3511L5494 3481L5606 3535L5719 3544L5833 3541L5947 3527L6173 3518L6287 3511L6401 3499L6514 3470L6626 3463L6734 3434L6844 3375L6948 3285L7079 3143L7184 3059L7258 2957L7362 2985L7540 3207" />
   </g>
  </g>
  <path fill="none" stroke-width="12" stroke="Black" d="M4580 4514L4580 2770M4536 4462L7584 4462"/>
  <g font-size="80" text-anchor="end">
   <text x="4515" y="4488">20</text>
   <text x="4515" y="4240">40</text>
   <text x="4515" y="4095">60</text>
   <text x="4515" y="3992">80</text>
   <text x="4515" y="3912">100</text>
   <text x="4515" y="3664">200</text>
   <text x="4515" y="3416">400</text>
   <text x="4515" y="3271">600</text>
   <text x="4515" y="3168">800</text>
   <text x="4515" y="3088">1e3</text>
   <text x="4515" y="2840">2e3</text>
  </g>
  <g font-size="80" text-anchor="middle">
   <text x="4610" y="4402">1</text>
   <text x="5172" y="4392">10</text>
   <text x="5764" y="4392">100</text>
   <text x="6356" y="4392">1e3</text>
   <text x="6948" y="4392">1e4</text>
   <text x="7512" y="4392">1e5</text>
   <text x="7540" y="4592">1</text>
   <text x="6948" y="4592">10</text>
   <text x="6356" y="4592">100</text>
   <text x="5764" y="4592">1e3</text>
   <text x="5172" y="4592">1e4</text>
   <text x="4608" y="4592">1e5</text>
   <text x="4846.4" y="4378" style="font-size: 100px;" fill="#444">Left</text>
   <text x="7273.6" y="4614" style="font-size: 100px;" fill="#444">Right</text>
  </g>
  <g stroke-width="19" stroke-linecap="round" fill="#12061a" transform="translate(4580 2798)">
   <rect fill="White" stroke="#0b0615" stroke-width="4" x="50" y="-6" width="720" height="420" />
   <path stroke="#7ccf81" d="M100 46L220 46"/>
   <path stroke="#6ca67d" d="M100 146L220 146"/>
   <path stroke="#db6239" d="M100 246L220 246"/>
   <path stroke="#c23f25" d="M100 346L220 346"/>
   <text x="250" y="76" style="font-size: 80px;">gcc</text>
   <text x="250" y="176" style="font-size: 80px;">gcc (native)</text>
   <text x="250" y="276" style="font-size: 80px;">Dyalog 17.1</text>
   <text x="250" y="376" style="font-size: 80px;">Dyalog 18.0</text>
  </g>
 </g>
 <text x="7540" y="2754" style="font-size:120px; text-anchor:end;" fill="#444">8-byte floats</text>
 <g font-size="160px" text-anchor="middle">
  <text x="4170" y="320" style="font-size:200px; text-anchor:middle;">Times (ร) outer product</text>
  <text transform="rotate(-90)" x="-2474" y="120" dy="0.9em">Time รท output bound (ps)</text>
  <text x="4170" y="4828">Argument lengths</text>
 </g>
</svg>
